<svg width="103" height="121" viewBox="0 0 103 121" fill="none" xmlns="http://www.w3.org/2000/svg">
<g id="Group">
<path id="Vector" d="M51.0338 1C38.8786 1 16.4655 4.14472 5.05137 10.782C-9.97651 64.0611 10.4613 100.292 51.0338 120.856C91.6065 100.292 112.044 63.8818 97.0162 10.7824C85.5906 4.14472 63.1886 1 51.0338 1Z" fill="#9C824A" stroke="#9C824A" stroke-width="0.250781" stroke-miterlimit="282"/>
<path id="Vector_2" d="M51.0338 4.42553C39.0921 4.42553 25.6464 5.95298 8.03672 13.1406C-5.07219 59.6476 10.1356 96.9232 51.0338 117.24C91.9319 96.9232 107.128 59.6473 94.0195 13.1406C76.4098 5.95298 62.9754 4.42553 51.0338 4.42553Z" fill="#023474" stroke="#023474" stroke-width="0.250781" stroke-miterlimit="282"/>
<g id="Vector_3">
<path d="M50.9778 4.38066C39.0921 4.38066 26.331 6.14371 14.8157 10.5015C2.87401 58.1205 11.6845 92.8911 51.0451 117.206L50.9778 4.38066ZM51.0451 117.206C90.4054 92.8911 99.2049 58.1205 87.2629 10.5015C75.7478 6.14371 62.9979 4.38066 51.1125 4.38066L51.0451 117.206Z" fill="white"/>
<path d="M51.0451 117.206C11.6845 92.8911 2.87401 58.1205 14.8157 10.5015C26.331 6.14371 39.0921 4.38066 50.9778 4.38066L51.0451 117.206ZM51.0451 117.206C90.4054 92.8911 99.2049 58.1205 87.2629 10.5015C75.7478 6.14371 62.9979 4.38066 51.1125 4.38066L51.0451 117.206Z" stroke="white" stroke-width="0.250781" stroke-miterlimit="282"/>
</g>
<path id="Vector_4" d="M51.0451 4.36959C39.0921 4.36959 26.9933 6.17755 17.1616 9.60278C4.79329 59.5129 14.7259 93.2165 51.0562 116.251L51.0451 4.36959Z" fill="#EF0107" stroke="#EF0107" stroke-width="0.250781" stroke-miterlimit="282"/>
<path id="Vector_5" d="M51.0676 4.36959C63.0203 4.36959 75.1195 6.17755 84.9622 9.60278C97.3305 59.5129 87.3976 93.2165 51.0565 116.251L51.0676 4.36959Z" fill="#DB0007" stroke="#DB0007" stroke-width="0.250781" stroke-miterlimit="282"/>
<path id="Vector_6" d="M35.6017 79.6835C30.3268 83.3004 26.1293 84.603 21.2582 85.8946L18.3177 81.3236C22.7961 79.0552 27.4312 75.8991 32.1003 71.3284C32.493 75.764 34.5578 78.9084 35.6017 79.6835Z" fill="white"/>
<path id="Vector_7" d="M34.8832 79.4929C29.8777 82.9292 22.9078 85.3215 14.928 86.4894L13.3006 84.0189C20.1356 81.4577 26.7349 77.6397 31.853 72.2714C32.6275 75.7077 33.8058 77.9879 34.8832 79.4929Z" fill="#9C824A"/>
<path id="Vector_8" d="M21.5501 58.5022C21.5501 60.4227 20.0014 61.9726 18.0822 61.9726C16.1629 61.9726 14.6028 60.4227 14.6028 58.5022C14.6028 56.5816 16.1629 55.0321 18.0822 55.0321C20.0014 55.0321 21.5501 56.5816 21.5501 58.5022Z" fill="white"/>
<path id="Vector_9" d="M21.1794 51.6625V64.7578H31.4937C32.167 60.3664 34.6587 55.7056 40.3039 51.6625H21.1794Z" fill="white"/>
<path id="Vector_10" d="M21.595 64.7578C19.294 64.7913 17.3975 61.9049 17.3637 58.2887C17.3412 54.6721 19.1821 51.7074 21.4941 51.6625C21.5166 51.6625 21.539 51.6625 21.5729 51.6625" fill="white"/>
<path id="Vector_11" d="M20.091 58.5022C20.091 59.9847 19.0135 61.1754 17.6891 61.1754C16.3647 61.1754 15.2872 59.9851 15.2872 58.5022C15.2872 57.0196 16.3647 55.8293 17.6891 55.8293C19.0135 55.829 20.091 57.0196 20.091 58.5022Z" fill="#9C824A"/>
<path id="Vector_12" d="M21.4603 52.3478V64.1174H31.6961C32.5041 60.2093 34.4908 56.0539 39.4513 52.3478H21.4603Z" fill="#9C824A"/>
<path id="Vector_13" d="M21.8417 64.1174C19.6754 64.1627 17.9023 61.5571 17.8687 58.3112C17.8463 55.0656 19.5859 52.3924 21.7519 52.3478C21.7743 52.3478 21.7968 52.3478 21.8193 52.3478" fill="#9C824A"/>
<path id="Vector_14" d="M70.6184 67.8238C70.6184 78.7519 61.7747 87.6013 50.8542 87.6013C39.945 87.6013 31.0899 78.7519 31.0899 67.8238C31.0899 56.8963 39.945 48.0463 50.8542 48.0463C61.7747 48.0463 70.6184 56.8963 70.6184 67.8238Z" fill="white"/>
<path id="Vector_15" d="M69.5865 67.8238C69.5865 78.1789 61.2022 86.5679 50.8544 86.5679C40.5177 86.5679 32.1338 78.1789 32.1338 67.8238C32.1338 57.4804 40.5177 49.0798 50.8544 49.0798C61.2022 49.0794 69.5865 57.4691 69.5865 67.8238Z" fill="#9C824A"/>
<path id="Vector_16" d="M66.4772 67.8238C66.4772 76.4604 59.4847 83.4576 50.8542 83.4576C42.2346 83.4576 35.2425 76.4604 35.2425 67.8238C35.2425 59.1872 42.2346 52.1903 50.8542 52.1903C59.4847 52.1903 66.4772 59.1872 66.4772 67.8238Z" fill="white"/>
<path id="Vector_17" d="M65.445 67.8238C65.445 75.8873 58.9127 82.4127 50.8542 82.4127C42.807 82.4127 36.275 75.8873 36.275 67.8238C36.275 59.7602 42.807 53.2352 50.8542 53.2352C58.9127 53.2348 65.445 59.7602 65.445 67.8238Z" fill="#9C824A"/>
<path id="Vector_18" d="M56.9371 67.8238C56.9485 71.182 54.2212 73.9112 50.8652 73.9222C47.4985 73.9222 44.7709 71.1934 44.7709 67.8352V67.8238C44.7709 64.4656 47.4871 61.7368 50.8538 61.7368C54.2095 61.7257 56.9368 64.4549 56.9368 67.8127C56.9371 67.8238 56.9371 67.8238 56.9371 67.8238Z" fill="white"/>
<path id="Vector_19" d="M56.2192 67.8238C56.2192 70.7892 53.8281 73.1923 50.8655 73.1923C47.9026 73.1923 45.5008 70.8006 45.4894 67.8355V67.8241C45.4894 64.8593 47.8912 62.4556 50.8541 62.4556C53.817 62.4556 56.2192 64.8479 56.2192 67.8127V67.8238Z" fill="#9C824A"/>
<path id="Vector_20" d="M53.6153 67.8238C53.6153 69.3399 52.3807 70.5751 50.8545 70.5862C49.3393 70.5862 48.1047 69.3513 48.1047 67.8238C48.1047 66.2967 49.3393 65.0725 50.8545 65.0614C52.3803 65.0611 53.6153 66.2967 53.6153 67.8238Z" fill="white"/>
<path id="Vector_21" d="M52.8522 67.8238C52.8522 68.9243 51.9654 69.8228 50.8545 69.8228C49.7546 69.8228 48.8568 68.9354 48.8568 67.8238C48.8568 66.7236 49.7546 65.8252 50.8545 65.8252C51.954 65.8248 52.8522 66.7119 52.8522 67.8238Z" fill="#9C824A"/>
<path id="Vector_22" d="M52.9081 52.8981H48.7556V62.59H52.9081V52.8981Z" fill="white"/>
<path id="Vector_23" d="M52.2681 51.5053H49.4064V63.8255H52.2681V51.5053Z" fill="#9C824A"/>
<path id="Vector_24" d="M62.4255 58.3672L64.6927 61.8487L56.5671 67.1278L54.3113 63.6459L62.4255 58.3672Z" fill="white"/>
<path id="Vector_25" d="M63.9409 58.1541L65.5009 60.5575L55.1753 67.2736L53.6152 64.859L63.9409 58.1541Z" fill="#9C824A"/>
<path id="Vector_26" d="M45.0293 68.61L47.2516 72.114L39.0697 77.3029L36.8475 73.7875L45.0293 68.61Z" fill="white"/>
<path id="Vector_27" d="M46.4211 68.4079L47.9587 70.8338L37.566 77.4262L36.0281 75.0003L46.4211 68.4079Z" fill="#9C824A"/>
<path id="Vector_28" d="M52.9081 73.3834H48.7556V83.075H52.9081V73.3834Z" fill="white"/>
<path id="Vector_29" d="M52.2681 72.002H49.4064V84.3108H52.2681V72.002Z" fill="#9C824A"/>
<g id="Vector_30">
<path d="M46.8028 72.3499C47.3641 72.8214 47.9811 73.2484 48.7556 73.5741L48.7331 82.2218C44.8162 81.7164 41.8533 79.7848 39.6086 77.0335L46.8142 72.3499" fill="#EF0107"/>
<path d="M46.8028 72.3499C47.3641 72.8214 47.9811 73.2484 48.7556 73.5741L48.7331 82.2218C44.8162 81.7164 41.8533 79.7848 39.6086 77.0335L46.8142 72.3499" stroke="#EF0107" stroke-width="0.0985098" stroke-miterlimit="282"/>
</g>
<g id="Vector_31">
<path d="M54.8945 72.3837C54.3221 72.8441 53.7158 73.2821 52.9417 73.5965L52.9527 82.2445C56.8697 81.7391 59.8329 79.8075 62.0776 77.0559L54.8834 72.384" fill="#DB0007"/>
<path d="M54.8945 72.3837C54.3221 72.8441 53.7158 73.2821 52.9417 73.5965L52.9527 82.2445C56.8697 81.7391 59.8329 79.8075 62.0776 77.0559L54.8834 72.384" stroke="#DB0007" stroke-width="0.0985098" stroke-miterlimit="282"/>
</g>
<path id="Vector_32" d="M56.8586 68.7561L65.4333 67.7226C65.5006 69.8674 64.9842 71.7544 64.2546 73.5627L56.8359 68.7561" fill="#DB0007"/>
<path id="Vector_33" d="M56.8701 68.7222C56.9036 68.5875 56.8925 68.4642 56.9488 68.0711L65.4115 66.9705C65.445 67.3636 65.4225 67.5094 65.4115 67.689L56.8701 68.7222Z" fill="white" stroke="white" stroke-width="0.0985098" stroke-miterlimit="282"/>
<path id="Vector_34" d="M69.3954 61.5909H80.4956C80.1474 62.9046 79.8106 64.241 78.2167 64.8365C75.6691 65.7916 70.3831 66.7122 70.3831 66.7122C70.2819 65.2631 69.9565 63.2974 69.3954 61.5909Z" fill="white"/>
<path id="Vector_35" d="M61.6627 51.4718L90.6638 51.5053L89.6427 62.107L69.8332 63.1405C68.7668 58.401 65.1638 53.8752 61.6627 51.4718Z" fill="white"/>
<path id="Vector_36" d="M62.6949 52.2242L99.721 52.2577L98.3068 60.8946L69.5748 62.3098C68.4411 58.0193 65.8488 54.886 62.6949 52.2242Z" fill="#9C824A"/>
<path id="Vector_37" d="M69.3954 61.5909H79.6196C79.2831 62.7585 79.0472 63.8255 77.5435 64.3533C75.153 65.2069 70.3382 65.8808 70.3382 65.8808C70.1361 64.4773 69.8442 63.0507 69.3954 61.5909Z" fill="#9C824A"/>
<path id="Vector_38" d="M58.172 36.0743C58.172 36.5461 58.0711 37.8376 58.0152 38.1969H63.7616C63.4131 36.6691 63.256 34.5468 63.2114 32.9071C63.2114 33.0193 63.1105 29.6163 63.1105 29.6163C63.1105 29.3803 63.2114 29.0211 63.3572 28.9088C63.5595 28.6729 63.7616 28.6729 64.0086 28.6729C64.2553 28.5606 64.7043 28.5606 64.7603 29.4929L64.9064 33.0193C64.9624 34.6701 64.9624 36.9053 64.7603 38.1969H70.2936C70.2484 37.725 70.0915 36.5458 70.0466 36.1976C70.7424 37.725 72.2464 38.5447 74.2441 38.5447C75.4338 38.5447 76.3427 38.084 77.0388 37.6125C77.0388 37.7247 77.3307 38.1969 77.3307 38.1969H87.6114C87.1624 36.6691 86.8705 34.5468 86.7136 32.9071L85.2655 21.3841L79.9792 20.4408C80.4286 21.9682 80.7316 24.2031 80.9219 25.7306L81.7299 33.143C81.876 34.4345 81.9772 35.8497 81.9772 37.3769V37.4891L81.7748 37.0173C81.371 36.0739 81.18 34.9061 81.0228 33.1427L80.8321 30.7841C80.5292 27.0218 78.4865 25.3818 73.9858 25.3818C73.2451 25.3818 71.3483 25.494 70.1924 25.8536L70.4954 30.0764L71.6965 29.38C72.6955 28.7849 73.4361 28.5489 74.3336 28.5489C75.0411 28.5489 75.4898 28.7852 75.6919 29.2567C74.8393 29.38 73.896 29.6159 72.8413 30.0764C71.2474 30.7838 70.2484 31.8505 69.7997 33.0187V32.9065L69.6425 29.0205C69.553 26.5496 67.9481 24.9099 65.501 24.9099C64.4125 24.9099 63.4131 25.2581 62.5156 25.8533C62.4596 25.7296 62.4147 25.617 62.3584 25.4937L62.1564 25.0219L57.5658 24.786C57.7679 25.617 58.0711 27.9645 58.1161 28.7845C57.8688 27.6163 57.2179 26.3248 56.0168 25.3814C55.0744 24.7863 53.8733 24.4381 52.6277 24.4381C50.9326 24.4381 49.1819 25.1455 48.0371 26.3248C46.8363 27.4927 46.2411 29.1438 46.1851 31.0194C45.7364 30.5476 45.1415 30.0871 44.4455 29.8515L42.3466 28.7845H42.2457C41.752 28.5483 41.6958 28.436 41.6958 28.3238C41.752 28.0879 42.2457 27.8519 42.8968 27.8519C43.7947 27.8519 45.0407 28.3238 46.0394 28.9079L46.1402 25.1455C45.3882 24.786 44.3446 24.5614 42.8406 24.5614C42.0436 24.5614 40.551 24.6737 39.249 25.3811C38.9008 25.617 38.5978 25.853 38.3063 26.0889L38.3512 25.0216C37.1504 24.797 35.8595 24.797 34.2656 26.3245C34.2096 26.2008 34.1084 25.6167 34.0076 25.3811L29.0694 25.617C29.4173 27.0212 29.4733 29.0201 29.3724 30.7835L29.2715 32.6702V32.9061C29.2152 33.8495 29.1706 34.9051 29.0694 35.8485C28.6653 34.5455 28.2276 32.7825 27.8683 31.3787L25.4219 20.3276L18.4408 21.3832C18.4857 21.4954 18.5866 21.855 18.6429 22.2029C18.6881 22.6747 18.6881 23.6181 18.037 25.617C16.8922 28.7845 15.2983 33.6136 13.7497 37.0163C13.5476 37.4882 13.1437 38.1956 13.1437 38.1956H18.5869C18.6881 37.3756 19.036 35.9607 19.3838 34.9048C20.1359 34.9048 22.0776 34.9048 22.9751 34.7811C23.1772 35.6122 23.3793 36.6678 23.4356 37.3753L23.5254 38.1953H34.412C34.1651 36.4319 34.2659 34.0845 34.3561 32.7818C34.4569 31.2544 34.7599 30.1988 35.4111 29.6147C35.9047 29.0195 36.4547 28.9072 36.8588 28.9072C36.8028 31.0185 38.1497 31.9621 39.3505 32.5459L41.494 33.6126C42.246 34.0845 42.246 34.1967 42.246 34.4326C42.2011 34.7808 41.5949 34.9045 41.0452 34.9045C39.9004 34.9045 38.3515 34.1967 36.6567 32.3214L36.5559 37.2516C37.9027 37.9591 39.5975 38.3073 41.1015 38.3073C43.5932 38.3073 46.2418 37.139 46.9378 34.9042C48.1835 37.2513 50.6303 38.3073 53.0321 38.3073C55.1753 38.3091 56.7689 37.6125 58.172 36.0743ZM20.6858 31.256C20.9888 30.4363 21.2355 29.7285 21.6845 28.437C21.9875 29.7285 22.1333 30.5485 22.2794 31.1437C21.6845 31.256 21.3816 31.256 20.6858 31.256ZM51.2359 29.9644C51.2359 28.3247 51.8307 27.6173 52.4259 27.6173C52.628 27.6173 53.0767 27.4936 53.2785 28.3247C53.3794 28.6729 53.4243 28.9088 53.4243 29.0211C53.4243 29.4929 53.1776 29.6163 52.8746 29.6163V29.7285C52.8746 29.7285 52.0328 29.9644 51.2359 30.3237C51.2359 30.2004 51.2359 30.0881 51.2359 29.9644ZM56.926 33.3786C55.8707 34.3109 55.119 34.9061 53.8733 34.9061C52.8746 34.7824 52.2795 34.1983 51.9316 33.3786C52.9755 33.0193 57.0158 31.4919 58.1717 31.0201C58.1717 31.9634 58.2169 33.019 58.2169 33.019V35.0183L56.926 33.3786ZM75.5344 35.0186C74.592 35.0186 74.3896 34.3109 74.3447 33.8504C74.3896 33.3786 74.5354 32.6712 76.0391 32.1996C76.0844 32.7837 76.14 33.2553 76.14 33.2553V33.7268C76.1852 34.086 76.1852 34.4342 76.2298 34.7824C76.0394 34.9061 75.7928 34.9061 75.5344 35.0186Z" fill="#9C824A"/>
<path id="Vector_39" d="M45.2873 25.7306C44.7937 25.6183 44.0416 25.3824 42.8409 25.3824C41.8982 25.3824 40.6522 25.6183 39.698 26.0901C38.5982 26.7976 37.8012 27.7298 37.7563 28.7968C37.6554 30.4366 38.5083 31.144 39.754 31.7281C40.5959 32.1999 41.4039 32.6715 41.8978 32.9074C42.5487 33.2556 43.1435 33.6148 43.0986 34.4348C43.0426 35.2549 42.2906 35.85 41.0449 35.85C40.001 35.85 38.5083 35.1426 37.4534 34.1989L37.4084 36.6697C38.3063 37.1416 39.754 37.3772 41.1009 37.3772C43.3905 37.3772 46.2411 36.3215 46.286 33.7271C46.342 31.7281 44.9395 31.0204 44.0976 30.5599C43.2447 30.2006 42.3915 29.7291 41.999 29.6166C41.5949 29.3806 40.7979 29.145 40.8542 28.2014C40.944 27.3817 41.8982 27.0221 42.8968 27.0221C43.7387 27.0221 44.5916 27.258 45.2424 27.6173" fill="white"/>
<path id="Vector_40" d="M24.7821 21.3841L19.4847 22.0916C19.5859 22.7993 19.3838 24.2031 18.8339 25.8539C17.7454 29.0211 15.9494 34.3106 14.5463 37.3765H17.8463C18.037 36.3098 18.2839 35.3776 18.789 34.086L23.6825 33.9624C23.8732 34.9057 24.2325 36.4332 24.2774 37.3765H28.7219C28.1719 36.0739 27.4762 33.3783 27.0274 31.4916L24.7821 21.3841ZM19.4847 32.076L21.8866 25.1465L23.3347 31.9637" fill="white"/>
<path id="Vector_41" d="M37.4537 25.7305L37.3528 28.0891C36.5559 27.9657 35.5572 28.2013 34.7602 29.0213C34.0642 29.7288 33.6154 30.7847 33.5146 32.6714C33.4134 34.1989 33.3684 35.9622 33.4583 37.3771H29.7206C29.9676 35.9622 30.0688 34.3222 30.1134 32.784L30.2142 30.9084C30.3151 29.3809 30.3151 27.8535 30.0684 26.4386L33.3681 26.3263C33.5142 26.7982 33.6151 27.6179 33.5591 28.4376C35.0069 26.202 36.4098 25.7305 37.4537 25.7305Z" fill="white"/>
<path id="Vector_42" d="M84.5245 22.0916L81.1237 21.4964C81.4718 23.0352 81.5727 24.0908 81.7748 25.618L82.572 33.0193C82.7289 34.5468 82.875 35.962 82.8298 37.3769H86.5226C86.1633 35.962 86.0175 34.5468 85.8714 33.0193" fill="white"/>
<path id="Vector_43" d="M69.2946 37.3768C69.1035 35.9619 69.0023 34.5467 68.9461 33.0193L68.8003 29.1447C68.6994 27.0221 67.4986 25.8542 65.5006 25.8542C64.4121 25.8542 63.1098 26.2024 62.0102 27.6172C61.9653 27.258 61.8081 26.3257 61.6064 25.8542L58.621 25.7305C58.8677 27.1457 58.9689 28.5495 59.0135 30.077L59.0698 33.0193C59.1147 34.5467 59.0698 35.9619 58.9689 37.3768H62.7063C62.5153 35.9619 62.4144 34.5467 62.3581 33.0193L62.2572 29.7288C62.2123 28.5495 63.1101 27.7295 64.0082 27.7295C65.0518 27.7295 65.5569 28.4369 65.6021 29.4929L65.759 33.0193C65.8042 34.5467 65.8042 35.9619 65.703 37.3768" fill="white"/>
<path id="Vector_44" d="M80.9779 37.3769C80.5292 36.1976 80.2822 34.7827 80.181 33.2553L79.9786 30.9078C79.7765 28.0888 78.5874 26.2021 73.9855 26.2021C73.1885 26.2021 72.0437 26.3257 71.1013 26.5503L71.2471 28.6729C72.1895 28.0888 73.1439 27.6173 74.3447 27.6173C75.5904 27.6173 76.6343 28.2014 76.7355 29.9644C75.5344 30.0881 74.4345 30.3126 73.1889 30.9078C71.7974 31.4919 70.3493 32.6712 70.4951 34.5465C70.6409 36.6691 72.2458 37.6125 74.2438 37.6125C75.7925 37.6125 76.8364 36.905 77.4313 36.1976C77.5321 36.6691 77.6893 37.0173 77.8351 37.3769H80.9779ZM75.5344 35.8494C74.4342 35.8494 73.537 35.2542 73.4918 33.9627C73.4918 32.6712 74.2887 31.6155 76.8364 31.256L76.9825 33.2553C77.0385 33.9627 77.0385 34.4345 77.1394 35.0186C76.7807 35.4902 76.1856 35.7261 75.5344 35.8494Z" fill="white"/>
<path id="Vector_45" d="M55.5231 26.0898C54.6705 25.4946 53.6715 25.2587 52.6279 25.2587C50.1811 25.2587 46.9374 27.0221 47.0383 31.4919C47.0832 36.0742 50.585 37.4891 53.0318 37.4891C55.1752 37.4891 56.4775 36.6691 57.5208 35.6135L56.7688 34.5465C56.2192 35.0183 55.321 35.7257 53.8733 35.7257C52.3243 35.6135 51.3367 34.5465 50.7867 32.9067L57.5657 30.4359C57.3636 28.2014 56.567 26.9098 55.5231 26.0898ZM53.1775 30.4362L50.4838 31.4919C50.4278 31.0203 50.3829 30.5485 50.3829 29.9644C50.3829 27.2577 51.8756 26.7862 52.3803 26.7862C53.1775 26.6739 53.8733 27.1454 54.131 28.0888C54.4232 29.1447 54.3223 30.0881 53.1775 30.4362Z" fill="white"/>
<path id="Vector_46" d="M37.2067 61.0517L39.4849 57.5813L47.5883 62.8821L45.3098 66.3637L37.2067 61.0517Z" fill="white"/>
<path id="Vector_47" d="M36.4547 59.8611L38.0261 57.4576L48.3179 64.2072L46.7465 66.611L36.4547 59.8611Z" fill="#9C824A"/>
<path id="Vector_48" d="M54.502 72.1028L56.7802 68.621L64.8833 73.9332L62.6051 77.4151L54.502 72.1028Z" fill="white"/>
<path id="Vector_49" d="M53.7496 70.9122L55.321 68.5091L65.6132 75.2586L64.0418 77.651L53.7496 70.9122Z" fill="#9C824A"/>
</g>
</svg>
