<svg width="447" height="674" viewBox="0 0 447 674" fill="none" xmlns="http://www.w3.org/2000/svg">
<path fill-rule="evenodd" clip-rule="evenodd" d="M0 0H447V674H0V0ZM169 672H278V642H169V672ZM280 672V640H167V672H102V576H345V672H280ZM102 2H167V34H280V2H345V98H102V2ZM169 2H278V32H169V2ZM347 672V574H269.309C262.764 559.343 245.032 549 224.5 549C203.967 549 186.236 559.343 179.691 574H100V672H2V338H165.035C166.088 368.002 190.742 392 221 392C251.258 392 275.912 368.002 276.965 338H445V672H347ZM181.914 574C188.369 560.647 204.866 551 224.5 551C244.133 551 260.631 560.647 267.086 574H181.914ZM274.964 338C273.912 366.897 250.154 390 221 390C191.846 390 168.088 366.897 167.036 338H274.964ZM275 336C275 306.177 250.823 282 221 282C191.177 282 167 306.177 167 336H275ZM277 336C277 305.072 251.928 280 221 280C190.072 280 165 305.072 165 336H2V2H100V100H179.691C186.236 114.657 203.967 125 224.5 125C245.032 125 262.764 114.657 269.309 100H347V2H445V336H277ZM267.086 100H181.914C188.369 113.353 204.866 123 224.5 123C244.133 123 260.631 113.353 267.086 100Z" fill="white"/>
</svg>
